<svg version="1.2" xmlns="http://www.w3.org/2000/svg" viewBox="0 0 1128 824" width="1128" height="824"><defs><linearGradient id="P" gradientUnits="userSpaceOnUse"/><linearGradient id="g1" x1="37.8" y1="-114.7" x2="1131.2" y2="-25.1" href="#P"><stop stop-color="#ac6227"/><stop offset="1" stop-color="#faa916"/></linearGradient></defs><style>.a{fill:url(#g1)}</style><path class="a" d="m348.5 84.7c25.7 156.1 206.7-33.1 206.7-33.1l-15 41.1c58.6-10.5 165.3-90.3 165.3-90.3 0 0-62.7 106.5 5.9 162.1 68.6 55.7 243.9-110.9 243.9-110.9-29.2 74.6 108-2.7 108-2.7-6.7 34.1 62.7-14.1 62.7-14.1 0 0-130.3 228-181.2 285.4-50.9 57.4-193.2 103.5-193.2 103.5-1.2 61.5 250.8 86 250.8 86l-202.1 118.1c0 0-36.2 66.3-161.5 44.5-125.2-21.8-114.6 36.8-114.6 36.8-8.8 60.9-56.6 80-56.6 80 0 0-108.2 52.8-155.7 21.9-47.5-30.8-103.3-8.4-103.3-8.4-24.8-25.2-30.3-52.6-46-142.4-15.8-89.8-161.6-47.9-161.6-47.9 29.3-28.3 27.2-144 30-178.4 2.8-34.4 32.7-70.4 32.7-70.4l-60.9-55.1c0 0 80.6 2.8 108.6-10.3 28-13.1 83.4-31.7 83.4-31.7 2.5-76.7 153.7-183.7 153.7-183.7z"/></svg>